<svg xmlns="http://www.w3.org/2000/svg" width="25" height="20" viewBox="0 0 25 20">
  <path id="Path_302417" data-name="Path 302417" d="M270.024,266.349h-10.38a2.844,2.844,0,0,0,1.684-.972l3.379-3.925,4.664,4.621a.915.915,0,0,0,1.379-.08,1.152,1.152,0,0,0-.073-1.519l-4.664-4.621a1.819,1.819,0,0,0-2.724.119l-1.437,1.672-4.666-4.441a.915.915,0,0,0-1.376.111,1.149,1.149,0,0,0,.1,1.516l4.6,4.376-.6.692a.911.911,0,0,1-1.349.072l-5.146-4.955a1.108,1.108,0,0,1-.333-.741,1.132,1.132,0,0,1,.244-.783l0-.005,3.765-4.737a2,2,0,0,0,.272-2.015,1.686,1.686,0,0,0-1.554-1.1H251.69a2.821,2.821,0,0,0-2.224-1.129,3.241,3.241,0,1,0,2.929,3.28h2.874l-3.408,4.288a3.415,3.415,0,0,0-.729,2.344,3.337,3.337,0,0,0,1,2.223l5.146,4.955a2.8,2.8,0,0,0,1.487.76H246.976a1.08,1.08,0,0,0,0,2.151h23.047a1.08,1.08,0,0,0,0-2.151ZM249.466,252.8a1.08,1.08,0,1,1,.977-1.076A1.031,1.031,0,0,1,249.466,252.8Z" transform="translate(-246 -248.5)" fill="#9ed26a"/>
</svg>
