<svg xmlns="http://www.w3.org/2000/svg" width="25" height="25" viewBox="0 0 25 25">
  <g id="Group_49713" data-name="Group 49713" transform="translate(-246 -245.998)">
    <g id="Group_40494" data-name="Group 40494" transform="translate(246 245.998)">
      <path id="Path_302428" data-name="Path 302428" d="M270.024,266.311h-22.07v-3.076a1.954,1.954,0,0,1,1.952-1.953h17.188a1.956,1.956,0,0,1,1.954,1.953.976.976,0,0,0,1.953,0,3.908,3.908,0,0,0-1.859-3.324,4.046,4.046,0,0,0-.045-.462V246.974a.977.977,0,0,0-1.954,0v2.25a53.616,53.616,0,0,0-8.789-.931,46.849,46.849,0,0,0-8.4.926v-2.245a.976.976,0,0,0-1.953,0v12.853a3.907,3.907,0,0,0-2,3.408v4.052a.976.976,0,0,0,.976.976h.976v1.758a.977.977,0,0,0,1.954,0v-1.758h17.188v1.758a.976.976,0,0,0,1.953,0v-1.758h.977a.976.976,0,1,0,0-1.952Zm-19.871-6.981a2.664,2.664,0,0,1,.87-1.081,4.9,4.9,0,0,1,5.58,0,2.664,2.664,0,0,1,.87,1.081Zm9.57,0a2.664,2.664,0,0,1,.87-1.081,4.9,4.9,0,0,1,5.58,0,2.668,2.668,0,0,1,.871,1.081Zm-9.767-8.119c.02,0,.041-.006.061-.011a46.313,46.313,0,0,1,8.338-.954,53.7,53.7,0,0,1,8.744.957l.045.006v5.33a6.625,6.625,0,0,0-3.76-1.116,6.554,6.554,0,0,0-3.976,1.274,5.1,5.1,0,0,0-.809.767,5.141,5.141,0,0,0-.807-.767,6.857,6.857,0,0,0-7.835-.087v-5.4Z" transform="translate(-246 -245.998)" fill="#46ceac"/>
    </g>
  </g>
</svg>
