<svg xmlns="http://www.w3.org/2000/svg" width="25" height="25" viewBox="0 0 25 25">
  <path id="Path_302421" data-name="Path 302421" d="M263.285,251.86a2.93,2.93,0,1,0-2.93-2.93A2.934,2.934,0,0,0,263.285,251.86Zm0-3.906a.976.976,0,1,1-.976.976A.977.977,0,0,1,263.285,247.954Zm-12.4,13.281a4.883,4.883,0,1,0,4.882,4.883A4.888,4.888,0,0,0,250.883,261.235Zm0,7.813a2.93,2.93,0,1,1,2.93-2.93A2.934,2.934,0,0,1,250.883,269.047ZM271,266.117a4.958,4.958,0,0,1-.1.981.977.977,0,1,1-1.914-.391,2.93,2.93,0,1,0-2.245,2.272.977.977,0,1,1,.414,1.909A4.883,4.883,0,1,1,271,266.117Zm-11.054-1.45-.426,4a.977.977,0,0,1-1.943-.208l.428-3.995a.975.975,0,0,0-.344-.851l-4.216-3.54-.03-.026a2.937,2.937,0,0,1-.206-4.125l.01-.011,3.232-3.486a2.914,2.914,0,0,1,2.279-.95,2.879,2.879,0,0,1,1.865.747l.126.115a15.263,15.263,0,0,1,2.456,2.864l1.124,1.7a.973.973,0,0,0,.814.438h2.76a.976.976,0,1,1,0,1.952h-2.76a2.924,2.924,0,0,1-2.442-1.311l-1.123-1.7c-.1-.144-.2-.285-.3-.426l-2.552,2.732a.977.977,0,0,1-1.428-1.334l2.716-2.906c-.187-.194-.709-.679-.709-.679a1.009,1.009,0,0,0-1.384.069l-.01.011-3.23,3.485a.979.979,0,0,0,.061,1.36l4.2,3.525a2.928,2.928,0,0,1,1.029,2.555Z" transform="translate(-246 -246)" fill="#9ed26a"/>
</svg>
