<svg xmlns="http://www.w3.org/2000/svg" width="25" height="25" viewBox="0 0 25 25">
  <g id="Group_40502" data-name="Group 40502" transform="translate(-246 -247)">
    <g id="Group_40501" data-name="Group 40501" transform="translate(246 247)">
      <path id="Path_302446" data-name="Path 302446" d="M270.024,257.619a1.048,1.048,0,0,0,.976-1.107v-8.407a1.162,1.162,0,0,0-.389-.883.888.888,0,0,0-.858-.179,12.333,12.333,0,0,1-4.4.132c-1.143-.082-2.438-.175-3.925-.175a3.719,3.719,0,0,0-2.93,1.5,3.719,3.719,0,0,0-2.93-1.5c-1.487,0-2.783.093-3.926.175a12.328,12.328,0,0,1-4.4-.132.888.888,0,0,0-.857.179,1.162,1.162,0,0,0-.389.883v18.351a4.711,4.711,0,0,0,1.14,3.136,3.666,3.666,0,0,0,2.766,1.3h7.617a.984.984,0,1,0,1.953,0h7.617A4.194,4.194,0,0,0,271,266.469v-4.425a.985.985,0,1,0-1.954,0,2.1,2.1,0,0,1-1.953,2.212h-7.129a2.106,2.106,0,0,0-.489.056V251.425a2.1,2.1,0,0,1,1.954-2.213c1.425,0,2.688.09,3.8.171a20.21,20.21,0,0,0,3.815.056v7.074A1.048,1.048,0,0,0,270.024,257.619Zm-12.5,11.061h-7.617a1.831,1.831,0,0,1-1.383-.65,2.349,2.349,0,0,1-.571-1.571v-.586a3.543,3.543,0,0,0,1.954.6h7.129a.524.524,0,0,1,.489.553Zm0-4.368a2.114,2.114,0,0,0-.489-.056h-7.129a2.1,2.1,0,0,1-1.954-2.212V249.439a20.222,20.222,0,0,0,3.816-.056c1.114-.081,2.376-.171,3.8-.171a2.1,2.1,0,0,1,1.954,2.213Zm2.441,2.157h7.129a3.539,3.539,0,0,0,1.953-.6v.6a2.1,2.1,0,0,1-1.953,2.211h-7.617v-1.658A.524.524,0,0,1,259.965,266.469Z" transform="translate(-246 -247)" fill="#fbd277"/>
    </g>
  </g>
</svg>
