<svg xmlns="http://www.w3.org/2000/svg" width="18" height="25" viewBox="0 0 18 25">
  <path id="Path_562182" data-name="Path 562182" d="M267.113,262.211a2.636,2.636,0,0,0,.926-1.954,1.237,1.237,0,0,0-2.418,0l0,.043a1.127,1.127,0,0,1-1.208.935,1,1,0,1,0,0,1.952,1,1,0,1,1,0,1.954,1,1,0,1,0,0,1.952,1,1,0,1,1,0,1.954H253.667a1,1,0,1,1,0-1.954h5.918a1,1,0,1,0,0-1.952h-5.918a1,1,0,1,1,0-1.954h5.918a1,1,0,1,0,0-1.952h-5.918a1.114,1.114,0,0,1-1.209-.978v-.021a10.072,10.072,0,0,1,4.047-8.376h5.067a10.656,10.656,0,0,1,3.408,4.529,1.279,1.279,0,0,0,1.51.645.958.958,0,0,0,.8-1.221,12.553,12.553,0,0,0-4.02-5.344v-2.515A2.224,2.224,0,0,0,260.852,246H257.23a2.225,2.225,0,0,0-2.416,1.954v2.512a12.918,12.918,0,0,0-3.6,4.371,11.449,11.449,0,0,0-1.171,5.432,2.635,2.635,0,0,0,.926,1.941,2.524,2.524,0,0,0,0,3.906,2.633,2.633,0,0,0-.926,1.953c0,1.616,1.626,2.93,3.622,2.93h10.749c2,0,3.624-1.314,3.624-2.93a2.633,2.633,0,0,0-.926-1.953,2.524,2.524,0,0,0,0-3.906Zm-9.883-14.257h3.622v1.952H257.23Z" transform="translate(-250.039 -246)" fill="#46ceac"/>
</svg>
