<svg xmlns="http://www.w3.org/2000/svg" width="20" height="20.004" viewBox="0 0 20 20.004">
  <path id="Path_562203" data-name="Path 562203" d="M255.654,254.323l0-6.074a1.192,1.192,0,0,0-1.219-1.19,1.233,1.233,0,0,0-1.219,1.244v0a1.506,1.506,0,0,1-1.5,1.5h-.153a1.036,1.036,0,0,0-.731.308.946.946,0,0,0-.28.677.958.958,0,0,0,.329.716.781.781,0,0,1-.4,1.358l-.769.117a2.026,2.026,0,0,0,.316,4.028.781.781,0,1,1,0,1.562,3.552,3.552,0,0,1-.862-.105,2.03,2.03,0,0,0-.51,1.347,1.653,1.653,0,0,0,1.651,1.652h.07a2.271,2.271,0,0,1,2.1,1.424,1.7,1.7,0,0,0,2.222.914.781.781,0,1,1,.655,1.418,3.161,3.161,0,0,1-1.35.274,3.206,3.206,0,0,1-2.974-2.017.712.712,0,0,0-.659-.451h-.069a3.218,3.218,0,0,1-3.214-3.214,3.538,3.538,0,0,1,.655-2.061,3.588,3.588,0,0,1,1.351-6.236,2.539,2.539,0,0,1-.11-.706,2.491,2.491,0,0,1,.731-1.794,2.6,2.6,0,0,1,1.842-.774h.1a2.793,2.793,0,0,1,4.741-1.959c.014.013.027.027.04.041l.039-.041a2.793,2.793,0,0,1,4.741,1.959h.1a2.6,2.6,0,0,1,1.828.765,2.5,2.5,0,0,1,.627,2.511,3.609,3.609,0,0,1,2.5,2.415.781.781,0,1,1-1.494.457,2.034,2.034,0,0,0-1.624-1.408l-.768-.119a.781.781,0,0,1-.4-1.357.976.976,0,0,0,.33-.724.947.947,0,0,0-.284-.674,1.023,1.023,0,0,0-.72-.3h-.161a1.505,1.505,0,0,1-1.5-1.5v0a1.233,1.233,0,0,0-1.219-1.244,1.192,1.192,0,0,0-1.219,1.19l0,6.075a.781.781,0,0,1-.781.781h0A.782.782,0,0,1,255.654,254.323Zm10.148,5.95a.781.781,0,0,0-.91.627,3.706,3.706,0,1,1-2.648-4.253.781.781,0,1,0,.42-1.5,5.273,5.273,0,1,0,3.764,6.04A.782.782,0,0,0,265.8,260.273Zm-1.281-3.184-3.275,3.241-1.013-1.013a.781.781,0,0,0-1.1,1.105l1.15,1.15a1.37,1.37,0,0,0,1.928.005l3.413-3.378a.781.781,0,1,0-1.1-1.11Z" transform="translate(-246.441 -245.497)" fill="#e3b692"/>
</svg>
