<svg xmlns="http://www.w3.org/2000/svg" width="23" height="23" viewBox="0 0 23 23">
  <path id="_001-broccoli" data-name="001-broccoli" d="M22.16,6A5.114,5.114,0,0,0,20.6,4.471c0-.068.007-.135.007-.2a3.185,3.185,0,0,0-4.991-2.628,4.263,4.263,0,0,0-6.1-.645A3.455,3.455,0,0,0,3.776,2.485q-.158-.014-.319-.015A3.462,3.462,0,0,0,0,5.93a3.505,3.505,0,0,0,.6,1.96A4.868,4.868,0,0,0,0,10.22a4.991,4.991,0,0,0,5.005,4.964,4.931,4.931,0,0,0,1.428-.209c.249.6.521,1.179.784,1.739a10.015,10.015,0,0,1,1.177,3.321V22.1a.9.9,0,0,0,.9.9h4.489a.9.9,0,0,0,.9-.9V20.035a3.139,3.139,0,0,1,.26-1.07.9.9,0,1,0-1.676-.645,4.858,4.858,0,0,0-.379,1.715V21.2H10.19V20.035a10.8,10.8,0,0,0-1.347-4.084A18.74,18.74,0,0,1,7.45,12.367a3.9,3.9,0,0,0,1.12.167h.006a3.984,3.984,0,0,0,.6-.047,7.959,7.959,0,0,0,1.008,2.237,1.863,1.863,0,0,0,1.487.952h.009c1.047-.008,1.716-1.034,2.425-2.121.179-.275.362-.554.549-.818a5.18,5.18,0,0,0,1.481.863c-.254.32-.514.664-.766,1.018a.9.9,0,1,0,1.462,1.044,19.371,19.371,0,0,1,1.388-1.745,5.131,5.131,0,0,0,2.484-.851A5.1,5.1,0,0,0,22.16,6ZM11.723,13.782a5.648,5.648,0,0,1-.874-1.959,4.132,4.132,0,0,0,.39-.3,4.306,4.306,0,0,0,1.577.72c-.074.112-.146.222-.216.329A9.324,9.324,0,0,1,11.723,13.782ZM21.134,9.47A3.275,3.275,0,0,1,16.1,11.576a3.655,3.655,0,0,0,.588-.594A3.617,3.617,0,0,0,17.436,8.3a.9.9,0,1,0-1.783.214,1.842,1.842,0,0,1-1.214,1.956.9.9,0,0,0-.1.015,2.519,2.519,0,0,1-2.449-.78.883.883,0,0,0-.726-.358.9.9,0,0,0-.721.391,2.3,2.3,0,0,1-1.87,1h0a2.4,2.4,0,0,1-1.352-.458.893.893,0,0,0-.259-.125.9.9,0,0,0-1.435.654,7.231,7.231,0,0,0,.3,2.472A3.155,3.155,0,0,1,2.434,8.345a.9.9,0,0,0-.11-1.186A1.691,1.691,0,0,1,1.8,5.93,1.663,1.663,0,0,1,3.457,4.268a1.645,1.645,0,0,1,.7.156.9.9,0,0,0,1.276-.866c0-.037,0-.069,0-.1a1.661,1.661,0,0,1,3.124-.786A1.843,1.843,0,0,1,7.8,4.856.9.9,0,1,0,8.75,6.38,3.643,3.643,0,0,0,10.4,2.639a2.467,2.467,0,0,1,4.181.8.9.9,0,0,0,1.626.143,1.392,1.392,0,0,1,2.54,1.1A.9.9,0,0,0,19.325,5.8a.9.9,0,0,0,.137.091A3.309,3.309,0,0,1,21.134,9.47Zm0,0" fill="#46ceac"/>
</svg>
