<svg xmlns="http://www.w3.org/2000/svg" width="25" height="25" viewBox="0 0 25 25">
  <g id="Group_45421" data-name="Group 45421" transform="translate(-246.5 -246.5)">
    <g id="Group_45420" data-name="Group 45420" transform="translate(246.5 246.5)">
      <path id="Path_307771" data-name="Path 307771" d="M256.854,260.008a1.485,1.485,0,0,0,1.484,1.484h1.744a1.485,1.485,0,0,0,1.484-1.484v-1.744a1.486,1.486,0,0,0-1.484-1.485h-1.744a1.486,1.486,0,0,0-1.484,1.485Zm1.484-1.744h1.744v1.744h-1.745Z" transform="translate(-242.152 -242.183)" fill="#e3b692"/>
      <circle id="Ellipse_3651" data-name="Ellipse 3651" cx="0.742" cy="0.742" r="0.742" transform="translate(18.235 9.466)" fill="#e3b692"/>
      <circle id="Ellipse_3652" data-name="Ellipse 3652" cx="0.742" cy="0.742" r="0.742" transform="translate(13.9 9.466)" fill="#e3b692"/>
      <path id="Path_307772" data-name="Path 307772" d="M270.524,263.688a.977.977,0,0,0,.976-.978V252.359a3.911,3.911,0,0,0-3.907-3.907h-1.27v-.976a.976.976,0,0,0-1.953,0v.976h-4.443v-.976a.976.976,0,1,0-1.953,0v.976H253.58v-.976a.977.977,0,0,0-1.954,0v.976h-1.22a3.911,3.911,0,0,0-3.907,3.907v15.234a3.911,3.911,0,0,0,3.907,3.907h17.187a3.911,3.911,0,0,0,3.907-3.907.976.976,0,0,0-1.953,0,1.956,1.956,0,0,1-1.954,1.954H250.407a1.956,1.956,0,0,1-1.954-1.954V252.359a1.956,1.956,0,0,1,1.954-1.953h1.22v.976a.977.977,0,0,0,1.954,0v-.976h4.395v.976a.976.976,0,1,0,1.953,0v-.976h4.443v.976a.976.976,0,0,0,1.953,0v-.976h1.27a1.956,1.956,0,0,1,1.954,1.953v10.351A.977.977,0,0,0,270.524,263.688Z" transform="translate(-246.5 -246.5)" fill="#e3b692"/>
      <circle id="Ellipse_3653" data-name="Ellipse 3653" cx="0.742" cy="0.742" r="0.742" transform="translate(5.231 18.135)" fill="#e3b692"/>
      <circle id="Ellipse_3654" data-name="Ellipse 3654" cx="0.742" cy="0.742" r="0.742" transform="translate(5.231 9.466)" fill="#e3b692"/>
      <circle id="Ellipse_3655" data-name="Ellipse 3655" cx="0.742" cy="0.742" r="0.742" transform="translate(5.231 13.8)" fill="#e3b692"/>
      <circle id="Ellipse_3656" data-name="Ellipse 3656" cx="0.742" cy="0.742" r="0.742" transform="translate(9.566 13.8)" fill="#e3b692"/>
      <circle id="Ellipse_3657" data-name="Ellipse 3657" cx="0.742" cy="0.742" r="0.742" transform="translate(9.566 9.466)" fill="#e3b692"/>
      <circle id="Ellipse_3658" data-name="Ellipse 3658" cx="0.742" cy="0.742" r="0.742" transform="translate(9.566 18.135)" fill="#e3b692"/>
    </g>
  </g>
</svg>
