<svg xmlns="http://www.w3.org/2000/svg" width="25" height="25" viewBox="0 0 25 25">
  <path id="Path_302426" data-name="Path 302426" d="M271,252.934a3.421,3.421,0,0,0-3.418-3.418h-.051c0-.034,0-.066,0-.1a3.418,3.418,0,0,0-5.2-2.916,2.929,2.929,0,1,0-1.636,5.359c.127,0,.431.013.5.136a2.821,2.821,0,0,1-.229,1.869c-.081.235-.169.459-.255.661a8.684,8.684,0,0,0-1.55-.871c-1.881-.8-3.036-.337-3.672.191-1.634,1.355-3.9,4.388-6.074,8.115-.8,1.379-3.421,6.029-3.421,8.014a.972.972,0,0,0,.286.69l.049.049a.972.972,0,0,0,.69.286c2.222,0,7.7-2.932,11.709-5.768a.976.976,0,0,0,.234-1.361l-.023-.029a1.032,1.032,0,0,0-.135-.17l-1.856-1.856a.977.977,0,0,0-1.381,1.381l1.09,1.09a51.334,51.334,0,0,1-5.444,3.2,23.481,23.481,0,0,1-2.969,1.284,34.724,34.724,0,0,1,2.384-4.994l.789.789a.977.977,0,1,0,1.381-1.381l-1.152-1.152a43.245,43.245,0,0,1,3.45-4.969l1.473,1.473a.977.977,0,0,0,1.381-1.381l-1.527-1.527c.108-.1.212-.192.314-.276.739-.614,2.759.544,3.568,1.354.846.845,2.011,2.831,1.378,3.541-.2.219-.431.459-.7.712a.976.976,0,1,0,1.336,1.424c.314-.293.59-.574.824-.836.565-.633,1.069-1.784.26-3.673a8.592,8.592,0,0,0-.89-1.559c.193-.08.4-.162.621-.237a2.821,2.821,0,0,1,1.869-.229c.124.074.136.376.136.5a2.93,2.93,0,1,0,5.359-1.636A3.426,3.426,0,0,0,271,252.934Zm-10.3-3.028a.976.976,0,1,1,.8-1.541.976.976,0,0,0,1.526.081,1.464,1.464,0,1,1,2.12,2.017c-.184.181-1,1.01-1.908,1.929a2.713,2.713,0,0,0-.349-1.387A2.342,2.342,0,0,0,260.7,249.906Zm7.529,4.906a.977.977,0,0,0,.409.742.977.977,0,1,1-1.541.8,2.342,2.342,0,0,0-1.1-2.186,2.7,2.7,0,0,0-1.388-.347c.919-.905,1.747-1.725,1.929-1.909a1.464,1.464,0,1,1,2.018,2.12A.979.979,0,0,0,268.226,254.813Z" transform="translate(-246 -246)" fill="#46ceac"/>
</svg>
