<svg xmlns="http://www.w3.org/2000/svg" width="25" height="25" viewBox="0 0 25 25">
  <g id="Group_49712" data-name="Group 49712" transform="translate(-246.001 -245.999)">
    <g id="Group_40499" data-name="Group 40499" transform="translate(246.001 245.999)">
      <path id="Path_302444" data-name="Path 302444" d="M268.072,256.3a2.91,2.91,0,0,0-.735.094l.51-5.667v-.008a3.914,3.914,0,0,0-3.329-4.185,45.7,45.7,0,0,0-6.066-.538,44.387,44.387,0,0,0-5.976.533,3.915,3.915,0,0,0-3.321,4.184v.008l.51,5.673A2.93,2.93,0,0,0,246,259.231a10.444,10.444,0,0,0,3.763,7.781l-.794,2.739a.976.976,0,0,0,.666,1.209.941.941,0,0,0,.273.04.978.978,0,0,0,.938-.7l.772-2.665h13.766l.772,2.665a.978.978,0,0,0,.938.7.941.941,0,0,0,.272-.04.976.976,0,0,0,.666-1.209l-.976-3.37a.976.976,0,0,0-.963-.7h-14.88a9.629,9.629,0,0,1-1.55-1.606,7.861,7.861,0,0,1-1.71-4.84.976.976,0,0,1,1.953,0,.907.907,0,0,0,.008.116l.066.561a2.148,2.148,0,0,0,2.551,2.044,26.929,26.929,0,0,1,11.939,0,2.148,2.148,0,0,0,2.551-2.044l.066-.561a.905.905,0,0,0,.006-.116.977.977,0,0,1,1.954,0,7.591,7.591,0,0,1-.844,3.465.977.977,0,0,0,1.742.884A9.524,9.524,0,0,0,271,259.231,2.932,2.932,0,0,0,268.072,256.3Zm-2.171-5.743-.827,9.2v.009q0,.039,0,.079a.2.2,0,0,1-.234.191,28.817,28.817,0,0,0-12.67,0,.192.192,0,0,1-.161-.041.189.189,0,0,1-.071-.15q0-.039,0-.079v-.009l-.829-9.2a1.957,1.957,0,0,1,1.661-2.089,42.53,42.53,0,0,1,5.69-.51,43.923,43.923,0,0,1,5.784.516A1.958,1.958,0,0,1,265.9,250.559Z" transform="translate(-246.001 -245.999)" fill="#fbd277"/>
    </g>
  </g>
</svg>
