<svg xmlns="http://www.w3.org/2000/svg" width="23" height="25" viewBox="0 0 23 25">
  <path id="Path_562191" data-name="Path 562191" d="M258.465,251.86a2.933,2.933,0,1,0-3.059-2.93A3,3,0,0,0,258.465,251.86Zm0-3.906a.977.977,0,1,1-1.02.976A1,1,0,0,1,258.465,247.954Zm11.393,3.3-8.117,3.09a6.028,6.028,0,0,1-2.161.4h-2.135v6.042c.337.008.679.013,1.02.013s.682,0,1.021-.013v-3.161a1.021,1.021,0,0,1,2.039,0v3.068a30.138,30.138,0,0,0,3.151-.375,10.156,10.156,0,0,0,2.4-.666,10.913,10.913,0,0,0-2.717-.72.983.983,0,0,1-.832-1.129,1.015,1.015,0,0,1,1.178-.8,13.816,13.816,0,0,1,3.063.8c1.1.467,1.66,1.089,1.66,1.845,0,1.49-2.117,2.115-3.711,2.455a30.008,30.008,0,0,1-4.194.545v7.376a1.021,1.021,0,0,1-2.039,0v-7.286c-.337.007-.677.01-1.021.01s-.682,0-1.02-.01v7.286a1.021,1.021,0,0,1-2.039,0v-7.376a30.007,30.007,0,0,1-4.194-.545c-1.593-.34-3.711-.965-3.711-2.455,0-.752.552-1.371,1.642-1.837a13.653,13.653,0,0,1,3.027-.8,1.018,1.018,0,0,1,1.181.794.982.982,0,0,1-.831,1.13,10.817,10.817,0,0,0-2.667.712,10.177,10.177,0,0,0,2.4.666,30.137,30.137,0,0,0,3.151.375V254.74H251.82a2.061,2.061,0,0,1-1.61-.753,1.879,1.879,0,0,1-.368-1.677l1-3.815a1.024,1.024,0,0,1,1.238-.708.976.976,0,0,1,.74,1.186l-1,3.814h7.761a3.937,3.937,0,0,0,1.407-.259l8.117-3.09a1.035,1.035,0,0,1,1.325.546A.964.964,0,0,1,269.858,251.254Z" transform="translate(-247.502 -246)" fill="#9ed26a"/>
</svg>
