<svg xmlns="http://www.w3.org/2000/svg" width="25" height="25" viewBox="0 0 25 25">
  <path id="Path_302439" data-name="Path 302439" d="M262.016,254.69a.977.977,0,0,1-.977.976h-2.593a.977.977,0,0,1-.978-.976v-3.859a.977.977,0,0,1,1.954,0v2.881h1.616A.977.977,0,0,1,262.016,254.69Zm8.984,1.9a.977.977,0,0,1-.976.978h0a.977.977,0,0,1-.977-.976v-5.228a.975.975,0,1,0-1.95,0l0,9.2a2.923,2.923,0,0,1-.765,2.164l-2.12,2.379a.976.976,0,0,1-1.41.051.991.991,0,0,1-.034-1.368l2.119-2.365a.983.983,0,0,0-1.456-1.32l-3.56,3.881.108.115a4.211,4.211,0,0,1-.226,5.946l-.749.694a.979.979,0,0,1-1.411-.089.991.991,0,0,1,.1-1.361l.731-.678a2.256,2.256,0,0,0,.123-3.183l-5.04-5.355a.931.931,0,0,0-1.341-.02,1.024,1.024,0,0,0-.019,1.419l3.289,3.468a.992.992,0,0,1,0,1.374.978.978,0,0,1-1.406-.019l-3.338-3.558-.005,0a2.983,2.983,0,0,1-.781-2.088v-9.279a.976.976,0,1,0-1.953,0s0,8.186,0,8.194A11.949,11.949,0,0,0,251.1,268l1.25,1.335a.992.992,0,0,1-.006,1.376.977.977,0,0,1-1.4-.024l-1.269-1.354,0-.005a13.892,13.892,0,0,1-3.669-9.8v-8.271a2.91,2.91,0,0,1,.889-2.029,2.856,2.856,0,0,1,2.078-.791,3,3,0,0,1,2.051.89,2.917,2.917,0,0,1,.364.445,8.593,8.593,0,0,1,14.226-.01,2.976,2.976,0,0,1,.332-.422,2.955,2.955,0,0,1,4.129-.123,2.875,2.875,0,0,1,.925,2.04v5.335Zm-7.769-6.665A6.642,6.642,0,0,0,252.7,257.82a2.927,2.927,0,0,1,2.291.935l2.19,2.345a6.693,6.693,0,0,0,2.7-.011l2.141-2.331a2.935,2.935,0,0,1,2.286-.938,6.639,6.639,0,0,0-1.076-7.891Zm6.816,10.562a.977.977,0,0,0-1.091.846A11.973,11.973,0,0,1,265.851,268l-1.268,1.353a.977.977,0,0,0,1.426,1.335l1.269-1.354,0-.005a13.894,13.894,0,0,0,3.611-7.751A.976.976,0,0,0,270.048,260.49Z" transform="translate(-246 -246)" fill="#f76c82"/>
</svg>
