<svg xmlns="http://www.w3.org/2000/svg" width="23" height="25" viewBox="0 0 23 25">
  <path id="Path_307773" data-name="Path 307773" d="M264.153,259.476a5.671,5.671,0,0,0-4.678-5.58v5.58a.976.976,0,0,1-.975.977h-6.627a.977.977,0,0,1,0-1.954h5.652v-5.664a.975.975,0,0,1,.975-.976,7.617,7.617,0,1,1-6.371,11.772.975.975,0,1,1,1.632-1.066,5.651,5.651,0,0,0,10.392-3.09Zm2.479-8.148a11.4,11.4,0,0,0-7.157-3.334v-1.019a.975.975,0,1,0-1.95,0v1.019a11.523,11.523,0,1,0,7.791,20.764.976.976,0,0,0-1.156-1.573,9.458,9.458,0,0,1-5.659,1.861,9.562,9.562,0,1,1,8.373-4.964.975.975,0,1,0,1.708.941,11.548,11.548,0,0,0-1.95-13.7Zm-1.536-2.911,2.678,2.188a.975.975,0,0,0,1.371-.14.98.98,0,0,0-.139-1.375l-2.678-2.186a.976.976,0,1,0-1.232,1.514Zm-16.485,2.406a.968.968,0,0,0,.621-.225l2.63-2.187a.976.976,0,1,0-1.245-1.5l-2.63,2.188a.976.976,0,0,0,.624,1.727Z" transform="translate(-247 -246)" fill="#e3b692"/>
</svg>
