<svg xmlns="http://www.w3.org/2000/svg" width="23" height="25" viewBox="0 0 23 25">
  <path id="Path_302441" data-name="Path 302441" d="M264.542,251.859a2.929,2.929,0,1,0-2.924-2.929A2.929,2.929,0,0,0,264.542,251.859Zm0-3.9a.976.976,0,1,1-.975.976A.977.977,0,0,1,264.542,247.954Zm-15.593,7.762v5.323a.977.977,0,0,0,.974.977.975.975,0,0,1,.975.976v7.031a.974.974,0,1,1-1.949,0V263.8a2.934,2.934,0,0,1-1.95-2.762v-5.323a2.93,2.93,0,0,1,2.924-2.929H252.7a.976.976,0,0,1,0,1.953h-2.778A.977.977,0,0,0,248.95,255.716Zm5.847,7.276v7.031a.975.975,0,1,1-1.95,0v-7.031a.975.975,0,1,1,1.95,0Zm-2.924-11.134a2.929,2.929,0,1,0-2.924-2.929A2.93,2.93,0,0,0,251.873,251.859Zm0-3.9a.976.976,0,1,1-.975.976A.976.976,0,0,1,251.873,247.954Zm11.694,17.529v4.541a.974.974,0,1,1-1.949,0v-3.565h-1.462a.976.976,0,0,1,0-1.953h2.437A.974.974,0,0,1,263.568,265.482Zm6.432.008a.975.975,0,0,1-.975.969h-1.51v3.565a.974.974,0,1,1-1.949,0v-4.541a.974.974,0,0,1,.974-.976H268a13.4,13.4,0,0,0-.475-2.555,6.594,6.594,0,0,0-1.425-2.682.98.98,0,0,1-.222-.96l.758-2.456a.875.875,0,0,0-.128-.758.818.818,0,0,0-.622-.353h-1.73a.977.977,0,0,1,0-1.954h1.794a2.755,2.755,0,0,1,2.148,1.175,2.816,2.816,0,0,1,.4,2.461l-.6,1.944a9.011,9.011,0,0,1,1.495,3.026A15.566,15.566,0,0,1,270,265.49Zm-9.574-4.031c1.161-.862,2.607-1.936,2.607-3.664a2.951,2.951,0,0,0-.819-2.1,2.9,2.9,0,0,0-3.81-.18,2.9,2.9,0,0,0-3.81.18,2.945,2.945,0,0,0-.819,2.1c0,1.727,1.445,2.8,2.607,3.664a7.527,7.527,0,0,1,1.265,1.074.973.973,0,0,0,1.515,0A7.527,7.527,0,0,1,260.426,261.459Zm-2.023-.9c-.276-.23-.571-.45-.863-.665-.893-.664-1.818-1.351-1.818-2.1,0-.6.319-.955.854-.955a.736.736,0,0,1,.7.3,1.091,1.091,0,0,1,.16.416.96.96,0,0,0,.954.909.987.987,0,0,0,.988-.917,1.144,1.144,0,0,1,.137-.373.73.73,0,0,1,.719-.335c.534,0,.852.357.852.955,0,.744-.924,1.431-1.818,2.1-.29.215-.585.435-.861.665Z" transform="translate(-247 -246)" fill="#f76c82"/>
</svg>
