<svg xmlns="http://www.w3.org/2000/svg" width="24.509" height="24.509" viewBox="0 0 24.509 24.509">
  <g id="noun-beauty-face-4675497" transform="translate(-74.371 -4.382)">
    <g id="Group_50009" data-name="Group 50009" transform="translate(75.131 5.131)">
      <path id="Path_562538" data-name="Path 562538" d="M97.581,16.1a.549.549,0,0,0-.549.549,10.4,10.4,0,1,1-10.4-10.4.549.549,0,1,0,0-1.1,11.5,11.5,0,1,0,11.5,11.5.549.549,0,0,0-.549-.549Z" transform="translate(-75.131 -5.15)" fill="#46ceac" stroke="#46ceac" stroke-width="1.5"/>
      <path id="Path_562539" data-name="Path 562539" d="M231.141,327.923a5.811,5.811,0,0,0,4.436-2.055.479.479,0,1,0-.73-.619,4.857,4.857,0,0,1-7.382.035.479.479,0,0,0-.724.626,5.813,5.813,0,0,0,4.4,2.013Z" transform="translate(-219.611 -311.408)" fill="#46ceac" stroke="#46ceac" stroke-width="1.5"/>
      <path id="Path_562540" data-name="Path 562540" d="M198.166,193.444h0a1.259,1.259,0,0,1,.551-.128A1.276,1.276,0,0,1,200,194.592a.478.478,0,0,0,.957,0,2.232,2.232,0,0,0-2.232-2.232,2.208,2.208,0,0,0-.915.2.291.291,0,0,0-.038.02,2.228,2.228,0,0,0-1.276,2.009.478.478,0,0,0,.957,0,1.276,1.276,0,0,1,.717-1.147Z" transform="translate(-191.227 -184.368)" fill="#46ceac" stroke="#46ceac" stroke-width="1.5"/>
      <path id="Path_562541" data-name="Path 562541" d="M386.1,194.917a.478.478,0,0,0,.478-.478,2.232,2.232,0,0,0-4.465,0,.478.478,0,1,0,.957,0,1.272,1.272,0,0,1,1.786-1.167.5.5,0,0,0,.06.033,1.27,1.27,0,0,1,.7,1.133.479.479,0,0,0,.482.478Z" transform="translate(-368.796 -184.221)" fill="#46ceac" stroke="#46ceac" stroke-width="1.5"/>
      <path id="Path_562542" data-name="Path 562542" d="M478.86,7.052l-.924-.5-.5-.923a.947.947,0,0,0-1.662,0l-.506.922-.925.506a.947.947,0,0,0,0,1.662l.925.5.5.925a.947.947,0,0,0,1.662,0l.5-.925.927-.506a.948.948,0,0,0,0-1.662Zm-1.385,1.329a.949.949,0,0,0-.376.376l-.489.925-.506-.925a.943.943,0,0,0-.377-.376l-.925-.489.925-.507h0a.942.942,0,0,0,.376-.376l.489-.925.506.925a.945.945,0,0,0,.376.376l.926.489Z" transform="translate(-456.352 -5.131)" fill="#46ceac" stroke="#46ceac" stroke-width="0.5"/>
    </g>
  </g>
</svg>
