<svg xmlns="http://www.w3.org/2000/svg" width="23" height="25" viewBox="0 0 23 25">
  <path id="Path_302442" data-name="Path 302442" d="M251.424,256.694a2.93,2.93,0,1,0-2.949-2.93A2.943,2.943,0,0,0,251.424,256.694Zm0-3.906a.976.976,0,1,1-.984.976A.98.98,0,0,1,251.424,252.787Zm2.948,12.4v4.834a.983.983,0,0,1-1.965,0V265.19a.983.983,0,0,1,1.965,0Zm9.732-2.2v7.031a.983.983,0,0,1-1.966,0v-7.031a.983.983,0,0,1,1.966,0Zm5.9-7.276v5.323a2.935,2.935,0,0,1-1.965,2.762v6.223a.983.983,0,0,1-1.966,0v-7.031a.979.979,0,0,1,.983-.976.982.982,0,0,0,.984-.977v-5.323a.982.982,0,0,0-.984-.976h-3.913a1.475,1.475,0,0,0-1.423,1.086l-1.521,5.65a2.13,2.13,0,0,1-3.375,1.11L253.4,259.9l0,0a1.492,1.492,0,0,0-.921-.321h-2.529a.982.982,0,0,0-.984.977v3.174a.491.491,0,0,0,.492.488.98.98,0,0,1,.983.977v4.834a.983.983,0,0,1-1.965,0v-4.061A2.444,2.444,0,0,1,247,263.725v-3.174a2.942,2.942,0,0,1,2.949-2.93h2.529a3.463,3.463,0,0,1,2.147.747l3.416,2.686a.15.15,0,0,0,.151.026.154.154,0,0,0,.1-.11l1.519-5.649a3.44,3.44,0,0,1,3.283-2.535h3.953A2.942,2.942,0,0,1,270,255.716Zm-4.914-3.856a2.93,2.93,0,1,0-2.949-2.93A2.944,2.944,0,0,0,265.086,251.86Zm0-3.906a.976.976,0,1,1-.983.976A.98.98,0,0,1,265.086,247.954Z" transform="translate(-247 -246)" fill="#f76c82"/>
</svg>
