<svg xmlns="http://www.w3.org/2000/svg" width="23" height="23" viewBox="0 0 23 23">
  <path id="Path_302424" data-name="Path 302424" d="M267.983,266.713a3.145,3.145,0,0,0,.118-.857v-1.017a2.467,2.467,0,0,0,.006-3.8,4.7,4.7,0,0,0-1.358-3.138c-1.2-1.2-3.057-1.8-5.521-1.791a12.93,12.93,0,0,0-1.4.069l.137-1.241a.9.9,0,0,0,.812-.895v-3.594a.9.9,0,0,0-.9-.9h-2.969l.175-1.753h4.756a.9.9,0,1,0,0-1.8h-5.571a.9.9,0,0,0-.894.81l-.273,2.739H250.82l-3.286-3.286a.9.9,0,1,0-1.271,1.271l21.2,21.2a.9.9,0,0,0,1.271-1.271Zm-1.454-4.451a.673.673,0,1,1,0,1.347h-1.65l-1.347-1.347Zm-5.3-4.358a5.944,5.944,0,0,1,4.248,1.266,2.762,2.762,0,0,1,.733,1.295h-4.477l-2.4-2.4a10.045,10.045,0,0,1,1.892-.16Zm-3.365-1.308-1.657-1.657h1.949l-.178,1.619C257.943,256.571,257.9,256.582,257.867,256.6Zm1.116-5.251v1.8h-4.569l-1.8-1.8Zm5.526,16.757a.9.9,0,0,1-.9.9H250.549a2.695,2.695,0,0,1-2.685-2.461l-1.012-11.6a.9.9,0,0,1-.852-.9v-2.246a.9.9,0,0,1,1.8,0v1.348h1.572a.9.9,0,0,1,0,1.8h-.713l1,11.444a.894.894,0,0,0,.9.82h4.11a3.125,3.125,0,0,1-.3-1.347v-.945a2.467,2.467,0,0,1-.033-3.925,5.293,5.293,0,0,1,.169-1.026.9.9,0,1,1,1.734.471l-.009.033h.475a.9.9,0,0,1,0,1.8h-.853a.673.673,0,1,0,0,1.347h3.818a.9.9,0,0,1,0,1.8h-3.5v.45A1.349,1.349,0,0,0,257.5,267.2h6.11a.9.9,0,0,1,.9.9Z" transform="translate(-246 -246)" fill="#46ceac"/>
</svg>
