<svg xmlns="http://www.w3.org/2000/svg" width="23" height="23" viewBox="0 0 23 23">
  <path id="_002-ham-leg" data-name="002-ham-leg" d="M20.6,2.336a3.145,3.145,0,1,0-5.889,2.137l-1.7,1.7c-1.4-.63-3.832-1.384-6.019-.389A14.921,14.921,0,0,0,1.753,9.243,7.377,7.377,0,0,0,0,14.375c0,.023,0,.045,0,.068a7.024,7.024,0,0,0,.56,2.8,9.712,9.712,0,0,0,3.579,4.292A8.209,8.209,0,0,0,8.514,23h.1c.067,0,.133,0,.2,0A7.421,7.421,0,0,0,13.2,21.641a11.377,11.377,0,0,0,3.229-4.159.9.9,0,1,0-1.6-.824,14.466,14.466,0,0,1-1.307,2.128A6.785,6.785,0,0,0,13,15.465a9.713,9.713,0,0,0-3.579-4.292A7.888,7.888,0,0,0,4.332,9.734a5.594,5.594,0,0,0-.634.1A16.068,16.068,0,0,1,7.74,7.421c2.353-1.072,5.448.864,5.477.882A.9.9,0,0,0,14.53,7.2l1.962-1.962a.9.9,0,0,0,.048-1.219,1.347,1.347,0,1,1,2.373-.873.9.9,0,0,0,.917.9h.032a1.348,1.348,0,0,1-.006,2.7,1.331,1.331,0,0,1-.86-.31.9.9,0,0,0-1.209.056L15.212,9.058a.89.89,0,0,0-.185.271.9.9,0,0,0-.064.909,8.986,8.986,0,0,1,.845,3.313.9.9,0,0,0,.9.869h.03a.9.9,0,0,0,.868-.928,10.858,10.858,0,0,0-.784-3.5l1.737-1.737A3.145,3.145,0,1,0,20.6,2.336ZM4.512,11.522a4.4,4.4,0,0,1,.443-.022,6.372,6.372,0,0,1,3.469,1.167,7.9,7.9,0,0,1,2.917,3.484,4.149,4.149,0,0,1,0,3.692,2.859,2.859,0,0,1-2.282,1.34c-.095.01-.191.016-.287.019l-.2,0a6.4,6.4,0,0,1-3.422-1.166,7.9,7.9,0,0,1-2.917-3.483,4.149,4.149,0,0,1,0-3.692A2.859,2.859,0,0,1,4.512,11.522Zm1.82,6.623a2.149,2.149,0,0,0,1.538-.616,2.456,2.456,0,0,0-.2-3.452,2.456,2.456,0,0,0-3.452-.2,2.456,2.456,0,0,0,.2,3.451A2.73,2.73,0,0,0,6.333,18.145Zm-.847-3a.376.376,0,0,1,.269-.093.95.95,0,0,1,.641.3c.319.319.371.744.2.91s-.591.115-.91-.2S5.319,15.31,5.485,15.144Zm0,0" fill="#46ceac"/>
</svg>
