<svg xmlns="http://www.w3.org/2000/svg" width="25" height="25" viewBox="0 0 25 25">
  <path id="Path_302435" data-name="Path 302435" d="M270.429,270.392a.976.976,0,0,1-1.272.535,31.755,31.755,0,0,0-22.31,0,.975.975,0,1,1-.736-1.805,33.7,33.7,0,0,1,23.782,0A.973.973,0,0,1,270.429,270.392Zm-20.972-15.67h5.664v3.116a3.906,3.906,0,0,1-1.223,2.832l-3.842,3.626a.976.976,0,0,0,1.342,1.416l3.842-3.626a5.848,5.848,0,0,0,1.016-1.273h3.58a5.868,5.868,0,0,0,1,1.268l3.81,3.629A.976.976,0,1,0,266,264.3l-3.81-3.627a3.914,3.914,0,0,1-1.21-2.821v-.2a.977.977,0,0,0-1.954,0v.2a5.828,5.828,0,0,0,.09,1.014h-2.135a5.729,5.729,0,0,0,.092-1.026v-3.116h9.57a.974.974,0,1,0,0-1.949H249.457a.974.974,0,1,0,0,1.949Zm5.664-5.8a2.93,2.93,0,1,1,2.93,2.924A2.93,2.93,0,0,1,255.121,248.924Zm1.954,0a.976.976,0,1,0,.976-.975A.977.977,0,0,0,257.074,248.924Z" transform="translate(-245.502 -246)" fill="#eb86be"/>
</svg>
