<svg xmlns="http://www.w3.org/2000/svg" width="25" height="25" viewBox="0 0 25 25">
  <path id="Path_302420" data-name="Path 302420" d="M271,269.047V271a3.894,3.894,0,0,1-2.9-1.67.292.292,0,0,0-.224-.088.288.288,0,0,0-.224.088,3.355,3.355,0,0,1-5.8,0,.292.292,0,0,0-.224-.088.288.288,0,0,0-.224.088,3.355,3.355,0,0,1-5.8,0,.33.33,0,0,0-.448,0,3.355,3.355,0,0,1-5.8,0,.33.33,0,0,0-.448,0A3.9,3.9,0,0,1,246,271v-1.954a2.254,2.254,0,0,0,1.4-.969,2.277,2.277,0,0,1,3.446,0,1.5,1.5,0,0,0,2.8,0,2.275,2.275,0,0,1,3.445,0,1.5,1.5,0,0,0,2.8,0,2.277,2.277,0,0,1,3.446,0,1.5,1.5,0,0,0,2.8,0,2.277,2.277,0,0,1,3.446,0,2.254,2.254,0,0,0,1.4.969Zm-24.459-3.422a.977.977,0,0,0,1.31-.439l5.32-10.694,1.509,2.97-3.4,6.855a.977.977,0,0,0,1.75.867l7.978-16.074,2.6,5.139-1.315,2.571-.659-1.113a.977.977,0,0,0-1.716.065l-1.9,3.858a.977.977,0,0,0,1.751.865l1.106-2.242.645,1.087a.976.976,0,0,0,1.709-.054L264.7,256.4l4.453,8.788a.976.976,0,1,0,1.741-.883l-9-17.774a.977.977,0,0,0-.871-.535h-.045a.974.974,0,0,0-.874.543l-4.337,8.737-1.714-3.374a.974.974,0,0,0-.87-.535h-.031a.977.977,0,0,0-.875.541l-6.17,12.4a.976.976,0,0,0,.439,1.309Z" transform="translate(-246 -246.001)" fill="#9ed26a"/>
</svg>
