<svg xmlns="http://www.w3.org/2000/svg" width="18" height="20" viewBox="0 0 18 20">
  <path id="Path_562202" data-name="Path 562202" d="M287.133,259.125h13.048a.8.8,0,0,0,.818-.781V256.7a2.374,2.374,0,0,0-1.987-2.307l-2.6-.475a1.171,1.171,0,0,1-.982-1.334c.074-.364.717-3.335.7-3.891a2.611,2.611,0,0,0-.857-1.908,2.947,2.947,0,0,0-2.016-.786,2.85,2.85,0,0,0-2,.8,2.643,2.643,0,0,0-.816,1.9c-.008.566.639,3.884.639,3.884a1.171,1.171,0,0,1-.982,1.334l-2.609.477a2.379,2.379,0,0,0-1.994,2.3s0,3.158,0,4.148a5.234,5.234,0,0,1-2.157,3.741.763.763,0,0,0-.3.874.817.817,0,0,0,.779.541h4.459a.845.845,0,0,0,.558-.209,8.7,8.7,0,0,0,1.371-1.564,2.537,2.537,0,0,1-.212.654.749.749,0,0,0,.045.754.83.83,0,0,0,.693.365h8.182a.848.848,0,0,0,.458-.134c.167-.108,1.628-1.133,1.628-3.889a.819.819,0,0,0-1.636,0,3.492,3.492,0,0,1-.768,2.46h-3.478a9.929,9.929,0,0,0,.073-1.084c0-.314-.021-.644-.044-.929a.807.807,0,0,0-.878-.719.793.793,0,0,0-.753.839c.02.252.042.541.038.791a8.447,8.447,0,0,1-.085,1.1h-1.64a5.862,5.862,0,0,0,.089-.968,6.843,6.843,0,0,0-.439-2.469.819.819,0,0,0-.807-.511.809.809,0,0,0-.753.581,7.754,7.754,0,0,1-1.975,3.367h-2.174a5.777,5.777,0,0,0,1.364-3.593v-1.719Zm0-2.428a.792.792,0,0,1,.664-.767l2.61-.477a2.861,2.861,0,0,0,1.81-1.121,2.626,2.626,0,0,0,.477-2.01l0-.018s-.622-3.139-.612-3.582v-.015a1.149,1.149,0,0,1,1.177-1.145,1.209,1.209,0,0,1,1.236,1.145c0,.008-.676,3.606-.678,3.613a2.623,2.623,0,0,0,.476,2.011,2.861,2.861,0,0,0,1.811,1.123l2.6.475a.79.79,0,0,1,.658.771v.862H287.134c0-.567,0-.865,0-.865Z" transform="translate(-282.999 -246)" fill="#e3b692"/>
</svg>
