<svg xmlns="http://www.w3.org/2000/svg" width="21" height="25" viewBox="0 0 21 25">
  <path id="Path_302427" data-name="Path 302427" d="M268.939,247.672a.981.981,0,0,0-.789-.636,5.018,5.018,0,0,1-2.341-1.059,6.725,6.725,0,0,0-4.282-1.475,5.884,5.884,0,0,0-4.361,2.161,13.369,13.369,0,0,0-1.008-1.73.983.983,0,0,0-1.361-.265.973.973,0,0,0-.266,1.356,9.223,9.223,0,0,1,1.125,2.117,4.773,4.773,0,0,0-2.7,1.612,6.211,6.211,0,0,0-1.264,4.074v.011a.991.991,0,0,1-.372.791A8.08,8.08,0,0,0,248,261.2a7.709,7.709,0,0,0,2.929,6.456A10.5,10.5,0,0,0,257.3,269.5a11.784,11.784,0,0,0,4.631-.864.977.977,0,1,0-.773-1.795,9.971,9.971,0,0,1-3.858.7c-2.739,0-7.335-.824-7.335-6.347a6.192,6.192,0,0,1,2.558-5.022,2.95,2.95,0,0,0,1.138-2.34v-.01c0-3.906,2.739-3.906,3.639-3.906,1.212,0,3.067,1.532,4.617,3.812a14.56,14.56,0,0,1,2.718,7.466,7.161,7.161,0,0,1-.48,2.709.981.981,0,0,0,1.818.735,9.077,9.077,0,0,0,.625-3.444,16.336,16.336,0,0,0-3.055-8.561q-.361-.529-.74-1.012h.1c2.7,0,4.818-1.857,5.838-2.965A.973.973,0,0,0,268.939,247.672Zm-6.038,2a5.36,5.36,0,0,1-3.157-1.08,10.666,10.666,0,0,0-1.107-.636,3.928,3.928,0,0,1,2.891-1.5,4.868,4.868,0,0,1,3.164,1.126,10.124,10.124,0,0,0,1.4.855A5.46,5.46,0,0,1,262.9,249.674Zm-.086,12.112a.981.981,0,1,1-.981-.976A.978.978,0,0,1,262.814,261.787Zm-3.335,1.806a.977.977,0,1,1-.982.978A.979.979,0,0,1,259.479,263.593Z" transform="translate(-247.997 -244.502)" fill="#46ceac"/>
</svg>
