<svg id="Group_49715" data-name="Group 49715" xmlns="http://www.w3.org/2000/svg" width="23" height="23" viewBox="0 0 23 23">
  <g id="Group_40496" data-name="Group 40496">
    <path id="Path_302436" data-name="Path 302436" d="M256.39,248.23h.036a6.382,6.382,0,0,1,6.394,6.427.7.7,0,0,0,.7.707h0a.7.7,0,0,0,.7-.7,7.788,7.788,0,0,0-7.8-7.84h-.039a.7.7,0,0,0,0,1.406Z" transform="translate(-241.969 -246.082)" fill="#f76c82"/>
    <path id="Path_302437" data-name="Path 302437" d="M269,264.532a3.4,3.4,0,0,0-1.044-2.338,8.359,8.359,0,0,0-3.307-2.2,3.705,3.705,0,0,0-3.8,1.079l0,.006-1.216,1.206a18.084,18.084,0,0,1-3.829-2.964l-.118-.118a18.176,18.176,0,0,1-2.961-3.829l1.205-1.214,0-.006a3.7,3.7,0,0,0,1.079-3.8,8.342,8.342,0,0,0-2.2-3.309,3.42,3.42,0,0,0-4.745-.171l-.025.024-.036.032a7.293,7.293,0,0,0-2,5.341c.018,3.693,2.048,7.917,5.43,11.3l.008.008a22.084,22.084,0,0,0,2.146,1.868.9.9,0,0,0,1.094-1.426,19.956,19.956,0,0,1-1.977-1.72l-.009-.008c-3.049-3.053-4.879-6.8-4.9-10.029a5.555,5.555,0,0,1,1.457-4.045l.007-.006a1.616,1.616,0,0,1,2.252.082c2.325,2.412,2.157,3.551,1.129,4.6l-1.665,1.678a.9.9,0,0,0-.183,1,18.118,18.118,0,0,0,3.612,4.9l.118.118a18.155,18.155,0,0,0,4.9,3.612.9.9,0,0,0,1-.183l1.678-1.665c1.055-1.028,2.193-1.2,4.606,1.129a1.617,1.617,0,0,1,.082,2.251l-.007.007a5.53,5.53,0,0,1-4,1.457h-.041a11.64,11.64,0,0,1-4.433-1.049.9.9,0,1,0-.712,1.649,13.248,13.248,0,0,0,5.136,1.2h.051a7.272,7.272,0,0,0,5.289-2l.033-.034.023-.026A3.4,3.4,0,0,0,269,264.532Z" transform="translate(-246 -246)" fill="#f76c82"/>
    <path id="Path_302438" data-name="Path 302438" d="M260.13,251.448a3.867,3.867,0,0,0-1.826-1.05.7.7,0,0,0-.375,1.355,2.455,2.455,0,0,1,1.207.689,2.517,2.517,0,0,1,.683,1.184l.01.034a.7.7,0,0,0,1.348-.4l-.01-.032A3.86,3.86,0,0,0,260.13,251.448Z" transform="translate(-243.526 -245.052)" fill="#f76c82"/>
  </g>
</svg>
