<svg xmlns="http://www.w3.org/2000/svg" width="25" height="24.44" viewBox="0 0 25 24.44">
  <g id="Group_45478" data-name="Group 45478" transform="translate(4986.643 9717.096)">
    <g id="savings" transform="translate(-4986.643 -9717.096)">
      <g id="Group_45477" data-name="Group 45477" transform="translate(0 0)">
        <path id="Path_307949" data-name="Path 307949" d="M24.443,12.9l-1.16-.28A9.787,9.787,0,0,0,20.2,8.911V5.8a.727.727,0,0,0-.732-.722H19.1a4.725,4.725,0,0,0-2.545.772c-1.3-5.19-8.928-4.268-8.869,1.126C1.338,8.806-2.477,15.552,1.845,21.092l.312,1.286.951,3.916a.73.73,0,0,0,.712.554H6.9a.73.73,0,0,0,.712-.554l.309-1.273a14.944,14.944,0,0,0,7.817.105l.283,1.167a.73.73,0,0,0,.712.554H19.8a.73.73,0,0,0,.712-.554l1.1-4.54a9.194,9.194,0,0,0,1.665-2.447l1.161-.281a.724.724,0,0,0,.558-.7V13.6a.724.724,0,0,0-.558-.7ZM12.168,3.828a2.984,2.984,0,0,1,1.654,5.484.736.736,0,0,0-.109.087,11.228,11.228,0,0,0-3.119-.037A2.984,2.984,0,0,1,12.168,3.828ZM23.537,17.759l-.958.232a.729.729,0,0,0-.505.433,7.714,7.714,0,0,1-1.65,2.475.72.72,0,0,0-.185.333L19.226,25.4h-1.92l-.328-1.353a.724.724,0,0,0-.354-.462.74.74,0,0,0-.584-.056,13.365,13.365,0,0,1-8.4-.121.741.741,0,0,0-.6.044.724.724,0,0,0-.364.467L6.318,25.4H4.4l-.817-3.362-.35-1.44a.719.719,0,0,0-.141-.284C-.533,15.866,2.3,10.143,7.977,8.4A4.426,4.426,0,0,0,8.8,9.744q-.3.093-.6.2a.724.724,0,1,0,.521,1.35,9.651,9.651,0,0,1,6.589,0,.724.724,0,1,0,.521-1.35c-.122-.046-.246-.089-.372-.131A4.4,4.4,0,0,0,16.521,7.9a3.063,3.063,0,0,1,2.215-1.353v2.73a.72.72,0,0,0,.31.59,8.338,8.338,0,0,1,3.029,3.638.729.729,0,0,0,.505.433l.957.232v3.589Z" transform="translate(0 -2.408)" fill="#5e9cea" fill-rule="evenodd"/>
        <path id="Path_307950" data-name="Path 307950" d="M373.243,224.879a.893.893,0,0,0-.955.81.969.969,0,0,0,1.909,0A.893.893,0,0,0,373.243,224.879Z" transform="translate(-354.817 -214.273)" fill="#5e9cea" fill-rule="evenodd"/>
      </g>
    </g>
  </g>
</svg>
