<svg xmlns="http://www.w3.org/2000/svg" width="25" height="25" viewBox="0 0 25 25">
  <path id="Path_302415" data-name="Path 302415" d="M267.386,251.86a2.93,2.93,0,1,0-2.929-2.93A2.933,2.933,0,0,0,267.386,251.86Zm0-3.906a.976.976,0,1,1-.976.976A.978.978,0,0,1,267.386,247.954Zm2.638,10.937H266.7a.489.489,0,0,1-.488-.489V255.28a2.933,2.933,0,0,0-1-2.2l-4.814-4.23a2.444,2.444,0,0,0-3.411.185l-2.581,2.8a.977.977,0,1,0,1.436,1.324l2.584-2.8a.491.491,0,0,1,.682-.038l1.785,1.569-4.611,5.151a2.936,2.936,0,0,0,.206,4.125l1.373,1.249a.755.755,0,0,0,.082.085.98.98,0,0,0,.081.065l2.458,2.236a.492.492,0,0,1,.036.686l-3.4,3.9a.976.976,0,0,0,1.473,1.282l3.394-3.9a2.452,2.452,0,0,0-.191-3.416l-1.825-1.661,4.283-4.8V258.4a2.444,2.444,0,0,0,2.441,2.441h3.321a.976.976,0,1,0,0-1.953Zm-12.214.826a.979.979,0,0,1-.068-1.378l4.625-5.166,1.455,1.279-5.289,5.924Zm-2.3,2.715a.977.977,0,0,1,.033,1.38l-2.053,2.151a2.454,2.454,0,0,1-3.4.185l-3.749-3.228a.976.976,0,1,1,1.274-1.48l3.753,3.23.007.006a.49.49,0,0,0,.684-.039l.015-.016,2.059-2.158A.977.977,0,0,1,255.513,262.432Z" transform="translate(-246 -246)" fill="#9ed26a"/>
</svg>
