<svg xmlns="http://www.w3.org/2000/svg" width="18" height="25" viewBox="0 0 18 25">
  <path id="Path_562205" data-name="Path 562205" d="M256.714,251.86a2.962,2.962,0,1,0-3.393-2.93A3.19,3.19,0,0,0,256.714,251.86Zm0-3.906a.987.987,0,1,1-1.131.976A1.063,1.063,0,0,1,256.714,247.954ZM268,253.764a1.062,1.062,0,0,1-1.131.978h-7.822L257.5,259.59a1.122,1.122,0,0,1-1.09.718,1.314,1.314,0,0,1-.3-.035.969.969,0,0,1-.789-1.2l1.383-4.33h-1.648a1.12,1.12,0,0,0-1.092.72l-1.656,5.32a.872.872,0,0,0,.192.851,1.2,1.2,0,0,0,.9.384h6.133a2.963,2.963,0,0,1,2.278,1,2.157,2.157,0,0,1,.422,2.175l-1.857,5.129a1.126,1.126,0,0,1-1.078.685,1.261,1.261,0,0,1-.339-.044.959.959,0,0,1-.741-1.224l1.855-5.13a.425.425,0,0,0-.084-.434.576.576,0,0,0-.454-.2h-6.135a3.576,3.576,0,0,1-2.694-1.149,2.6,2.6,0,0,1-.58-2.547l1.656-5.32a3.361,3.361,0,0,1,3.276-2.165h11.817a1.063,1.063,0,0,1,1.131.976Z" transform="translate(-250 -246)" fill="#eb86be"/>
</svg>
