<svg xmlns="http://www.w3.org/2000/svg" width="25" height="25" viewBox="0 0 25 25">
  <path id="Path_302416" data-name="Path 302416" d="M252.852,251.861a2.93,2.93,0,1,0-2.93-2.93A2.933,2.933,0,0,0,252.852,251.861Zm0-3.906a.976.976,0,1,1-.977.976A.978.978,0,0,1,252.852,247.955Zm18.115,16.453a.977.977,0,0,1-.976.976h-2.443v1.9a.976.976,0,0,1-.976.976H263.5v1.757a.976.976,0,0,1-.976.976H246.992a1.031,1.031,0,0,1-.8-1.647l3.291-3.977v-9.7l-1.562,2.343v3.561a.976.976,0,1,1-1.953,0v-3.857a.97.97,0,0,1,.164-.541l2.056-3.085a2.931,2.931,0,0,1,2.054-1.28,1.038,1.038,0,0,1,.219-.025l.05,0,.116,0h3.349a3.427,3.427,0,0,1,2.329,1.449l1.637,2.262h2.527a.976.976,0,1,1,0,1.952h-3.027a.975.975,0,0,1-.79-.4l-1.93-2.666a1.973,1.973,0,0,0-.81-.64h-2.475v10.985a.976.976,0,0,1-.225.622l-2.232,2.7h7.535v-3.612l-2.99-2.637a.979.979,0,0,1-.33-.732v-3.32a.977.977,0,1,1,1.954,0v2.878l2.989,2.638a.978.978,0,0,1,.331.732v4.052h3.076v-1.757a.976.976,0,0,1,.976-.977H265.6v-1.9a.977.977,0,0,1,.976-.976h3.419A.976.976,0,0,1,270.967,264.408ZM268.037,246h-5.274a.976.976,0,0,0-.741,1.611l1.59,1.859-1.573,1.737a.976.976,0,0,0,.724,1.631h6.25v7.177a.977.977,0,1,0,1.954,0V248.927A2.933,2.933,0,0,0,268.037,246Zm.976,4.886h-4.049l.671-.744a.977.977,0,0,0,.019-1.29l-.77-.9h3.152a.978.978,0,0,1,.976.976Z" transform="translate(-245.967 -245.999)" fill="#9ed26a"/>
</svg>
