<svg xmlns="http://www.w3.org/2000/svg" width="25" height="25" viewBox="0 0 25 25">
  <path id="Path_307774" data-name="Path 307774" d="M271,258.5a.977.977,0,0,1-.976.976h-.977a.977.977,0,0,1,0-1.954h.977A.977.977,0,0,1,271,258.5Zm-18.754-8.449a.977.977,0,1,0,1.563-1.172l-.586-.781a.976.976,0,1,0-1.562,1.171Zm6.251-.147a.975.975,0,0,0,.976-.976v-1.954a.976.976,0,0,0-1.953,0v1.954A.975.975,0,0,0,258.5,249.9Zm4.779.3a.978.978,0,0,0,1.337-.346l.489-.83a.976.976,0,0,0-1.682-.991l-.49.83A.977.977,0,0,0,263.276,250.206Zm3.427,4.286a.967.967,0,0,0,.511-.146l1.661-1.025a.977.977,0,0,0-1.026-1.662l-1.661,1.026a.977.977,0,0,0,.515,1.807Zm-18.665-.965,1.661.976a.977.977,0,1,0,.99-1.684l-1.66-.976a.977.977,0,1,0-.991,1.684Zm10.459-2.649a7.668,7.668,0,0,0-7.052,4.649.977.977,0,1,0,1.8.762,5.672,5.672,0,1,1,9.875,5.456.977.977,0,0,0,1.6,1.121,7.627,7.627,0,0,0-6.221-11.988Zm-11.526,8.595h.978a.977.977,0,0,0,0-1.954h-.978A.977.977,0,0,0,246.971,259.474Zm21.946,4-1.611-.978a.977.977,0,0,0-1.013,1.671l1.611.976a.976.976,0,1,0,1.013-1.67Zm-5.78,3.57A3.96,3.96,0,0,1,259.182,271h-8.829a4.327,4.327,0,0,1-1.045-8.53,5.012,5.012,0,0,1,1.385-2.775,4.878,4.878,0,0,1,3.485-1.491,4.945,4.945,0,0,1,4.511,2.914,3.014,3.014,0,0,1,2.571,2.519,3.971,3.971,0,0,1,1.876,3.407Zm-1.954,0a2.008,2.008,0,0,0-1.242-1.891.976.976,0,0,1-.614-.99v-.146a1.033,1.033,0,0,0-1.075-.977,1.1,1.1,0,0,0-1.074,1.075.977.977,0,0,1-.984.976.991.991,0,0,1-.97-1.005,3.027,3.027,0,0,1,1.467-2.562,2.972,2.972,0,0,0-2.492-1.365,3.07,3.07,0,0,0-2.991,3.041,1.1,1.1,0,0,1-1.081,1.112,2.372,2.372,0,0,0,.2,4.735h8.851a2,2,0,0,0,2-2Z" transform="translate(-246 -246)" fill="#e3b692"/>
</svg>
