<svg xmlns="http://www.w3.org/2000/svg" width="25" height="20" viewBox="0 0 25 20">
  <path id="Path_562190" data-name="Path 562190" d="M246.287,262.7a.975.975,0,0,1,1.38-1.379.832.832,0,0,0,.58.251h0a.819.819,0,0,0,.584-.247,2.768,2.768,0,0,1,1.97-.822h0a2.768,2.768,0,0,1,1.959.819.872.872,0,0,0,.59.251.893.893,0,0,0,.619-.251,2.767,2.767,0,0,1,1.956-.819h.005a2.812,2.812,0,0,1,1.958.819.879.879,0,0,0,.6.251h.005a.886.886,0,0,0,.6-.251,2.647,2.647,0,0,1,3.919,0,.888.888,0,0,0,.609.251h.009a.873.873,0,0,0,.591-.251,2.846,2.846,0,0,1,1.964-.867,2.8,2.8,0,0,1,1.955.867.9.9,0,0,0,.611.251h0a.837.837,0,0,0,.581-.251.975.975,0,0,1,1.379,1.379,2.807,2.807,0,0,1-1.959.819h0a2.847,2.847,0,0,1-1.991-.819.917.917,0,0,0-.575-.3.933.933,0,0,0-.584.3,2.833,2.833,0,0,1-1.949.819h-.031a2.839,2.839,0,0,1-1.988-.82.711.711,0,0,0-1.16,0,2.813,2.813,0,0,1-3.968,0,.835.835,0,0,0-.581-.251h0a.823.823,0,0,0-.578.251,2.811,2.811,0,0,1-3.966,0,.837.837,0,0,0-.581-.251h0a.819.819,0,0,0-.584.247,2.763,2.763,0,0,1-1.97.822h0a2.768,2.768,0,0,1-1.959-.819Zm23.047,3.1a.837.837,0,0,1-.58.251h0a.9.9,0,0,1-.611-.251,2.8,2.8,0,0,0-1.955-.869,2.843,2.843,0,0,0-1.964.869.873.873,0,0,1-.591.251h-.009a.894.894,0,0,1-.609-.251,2.644,2.644,0,0,0-3.919,0,.9.9,0,0,1-.6.251.885.885,0,0,1-.609-.251,2.81,2.81,0,0,0-1.958-.82h-.005a2.763,2.763,0,0,0-1.956.82.888.888,0,0,1-.619.251.872.872,0,0,1-.59-.251,2.764,2.764,0,0,0-1.959-.82h0a2.768,2.768,0,0,0-1.97.823.82.82,0,0,1-.584.249h0a.843.843,0,0,1-.581-.251.974.974,0,0,0-1.379,1.378,2.769,2.769,0,0,0,1.959.82h0a2.768,2.768,0,0,0,1.97-.822.82.82,0,0,1,.584-.249h0a.838.838,0,0,1,.58.251,2.828,2.828,0,0,0,1.949.82h.03a2.834,2.834,0,0,0,1.989-.82.826.826,0,0,1,.578-.251h0a.846.846,0,0,1,.581.251,2.834,2.834,0,0,0,1.984.82h.019a2.836,2.836,0,0,0,1.965-.82.711.711,0,0,1,1.16,0,2.832,2.832,0,0,0,1.986.82h.033a2.834,2.834,0,0,0,1.948-.82.945.945,0,0,1,.585-.3.917.917,0,0,1,.575.3,2.843,2.843,0,0,0,1.991.82h0a2.8,2.8,0,0,0,1.959-.82.975.975,0,0,0-1.38-1.378Zm-17.269-13.817,2.53-1.7a1.987,1.987,0,0,1,2.735.516l2.979,4.311a2.337,2.337,0,0,1,.2,2.47.976.976,0,0,0,1.74.886,4.267,4.267,0,0,0-.361-4.5l-2.951-4.274a3.953,3.953,0,0,0-5.436-1.026l-2.53,1.7a.974.974,0,1,0,1.093,1.613Zm-.6,7.061a.972.972,0,0,0,.556-.174l5.128-3.552a.975.975,0,1,0-1.115-1.6l-5.126,3.552a.973.973,0,0,0,.558,1.773ZM265,254.326a3.163,3.163,0,1,1,3.174-3.164A3.172,3.172,0,0,1,265,254.326Zm0-4.38a1.217,1.217,0,1,0,1.22,1.216A1.22,1.22,0,0,0,265,249.946Z" transform="translate(-246.001 -248)" fill="#9ed26a"/>
</svg>
