<svg xmlns="http://www.w3.org/2000/svg" width="20" height="20" viewBox="0 0 20 20">
  <path id="Path_302430" data-name="Path 302430" d="M259.554,251.351a.781.781,0,1,1-.781-.781A.782.782,0,0,1,259.554,251.351Zm1.953-.781a.781.781,0,1,0,.782.781A.781.781,0,0,0,261.507,250.57Zm1.733,7.3a.781.781,0,0,0-1.035.387,9.526,9.526,0,0,0-.9,4.55v1.634h-7.149V263.7a2.347,2.347,0,0,0-2.344-2.344h-.762a1.544,1.544,0,0,1-1.543-1.543v-2.246a.782.782,0,0,0-.781-.782h-1.09a.072.072,0,0,1-.063-.032.069.069,0,0,1-.009-.07,22.232,22.232,0,0,1,3.679-6.765,6.944,6.944,0,0,1,2.868-1.929.781.781,0,1,0-.527-1.471,8.511,8.511,0,0,0-3.514,2.368,23.8,23.8,0,0,0-3.978,7.271,1.64,1.64,0,0,0,1.544,2.191h.309v1.465a3.109,3.109,0,0,0,3.1,3.105h.762a.782.782,0,0,1,.781.782v1.523a.781.781,0,0,0,.782.781h8.711a.781.781,0,0,0,.781-.781V262.8a7.983,7.983,0,0,1,.757-3.9.781.781,0,0,0-.387-1.035Zm2.76-6.52v.014a5.124,5.124,0,0,1-1.719,3.8,5.99,5.99,0,0,1-4.063,1.542,6.213,6.213,0,0,1-2.091-.35l-2.594,1.143a.773.773,0,0,1-.315.067.782.782,0,0,1-.724-1.075l.887-2.194a5.023,5.023,0,0,1-.944-2.937,5.8,5.8,0,0,1,11.563-.01Zm-1.563.007a4.243,4.243,0,0,0-8.438,0,3.523,3.523,0,0,0,.869,2.306.782.782,0,0,1,.13.8l-.334.827,1.129-.5a.782.782,0,0,1,.622,0,4.576,4.576,0,0,0,1.8.352,4.027,4.027,0,0,0,4.219-3.787Z" transform="translate(-246 -246)" fill="#eb86be"/>
</svg>
