<svg xmlns="http://www.w3.org/2000/svg" width="20" height="20" viewBox="0 0 20 20">
  <path id="Path_562206" data-name="Path 562206" d="M263.513,259.047a8.256,8.256,0,0,0-.643,3.757v2.415a.781.781,0,0,1-.781.781h-8.711a.782.782,0,0,1-.782-.781V263.7a.782.782,0,0,0-.781-.782h-.762a3.109,3.109,0,0,1-3.1-3.105v-1.465h-.309a1.639,1.639,0,0,1-1.543-2.191,23.8,23.8,0,0,1,3.977-7.271,8.354,8.354,0,0,1,5.585-2.84c.044,0,.5-.043.891-.042.372,0,.826.041.845.042a.781.781,0,1,1-.134,1.557s-.41-.035-.717-.036c-.273,0-.632.025-.747.036h-.005a6.8,6.8,0,0,0-4.545,2.316,22.262,22.262,0,0,0-3.679,6.764.076.076,0,0,0,.072.1h1.09a.781.781,0,0,1,.781.782v2.246a1.545,1.545,0,0,0,1.543,1.543h.762a2.347,2.347,0,0,1,2.344,2.344v.742h7.148V262.8a9.841,9.841,0,0,1,.772-4.378.781.781,0,1,1,1.434.621Zm-1.381-11.725v-.54a.781.781,0,1,0-1.562,0v1.25a.781.781,0,0,0,.742.779v0a3.121,3.121,0,1,1-2.714,1.573l2.1,2.037a.781.781,0,1,0,1.082-1.108l-2.437-2.388a1.152,1.152,0,0,0-1.7.091c-.07.086-.135.17-.19.248a4.69,4.69,0,0,0,4.039,7.356,4.688,4.688,0,0,0,.635-9.3Z" transform="translate(-246 -246)" fill="#eb86be"/>
</svg>
