<svg xmlns="http://www.w3.org/2000/svg" width="20" height="20" viewBox="0 0 20 20">
  <path id="Path_302433" data-name="Path 302433" d="M266,254.555a.781.781,0,0,1-.781.781h-1.68a1.955,1.955,0,0,1-1.953-1.953v-1.641a.781.781,0,0,1,1.562,0v.963a3.126,3.126,0,1,0-3.606.852.782.782,0,0,1-.6,1.443,4.687,4.687,0,1,1,5.349-1.227h.929a.782.782,0,0,1,.781.782Zm-2.392,2.578a.78.78,0,0,0-1.043.363,9.958,9.958,0,0,0-1.257,5.308v1.634h-7.149V263.7a2.346,2.346,0,0,0-2.344-2.344h-.762a1.545,1.545,0,0,1-1.543-1.543v-2.246a.781.781,0,0,0-.781-.782h-1.09a.072.072,0,0,1-.063-.032.069.069,0,0,1-.009-.07,22.232,22.232,0,0,1,3.679-6.765,6.927,6.927,0,0,1,3.88-2.21.781.781,0,1,0-.293-1.534,8.488,8.488,0,0,0-4.76,2.712,23.819,23.819,0,0,0-3.978,7.271,1.64,1.64,0,0,0,1.544,2.191h.309v1.465a3.109,3.109,0,0,0,3.1,3.105h.762a.782.782,0,0,1,.781.782v1.523a.781.781,0,0,0,.782.781h8.711a.78.78,0,0,0,.781-.781V262.8a8.411,8.411,0,0,1,1.1-4.628A.78.78,0,0,0,263.608,257.133Z" transform="translate(-246 -246)" fill="#eb86be"/>
</svg>
