<svg xmlns="http://www.w3.org/2000/svg" width="25" height="25" viewBox="0 0 25 25">
  <path id="Path_302443" data-name="Path 302443" d="M250.052,255.851a.976.976,0,0,0,.976-.977v-1.515h3.419v1.515a.976.976,0,0,0,1.953,0v-5.229a3.662,3.662,0,0,0-7.324,0v5.229A.977.977,0,0,0,250.052,255.851Zm.976-6.206a1.709,1.709,0,0,1,3.419,0v1.76h-3.419Zm5.717,14.425a2.707,2.707,0,0,1,.006,3.786l-1.5,1.571a.976.976,0,0,1-1.41-1.351l1.035-1.084h-3.687A5.2,5.2,0,0,1,246,261.8v-3.946a.977.977,0,0,1,1.954,0V261.8a3.238,3.238,0,0,0,3.234,3.236h3.756l-1.131-1.11a.977.977,0,1,1,1.367-1.395l1.556,1.527.01.01ZM271,255.277v3.945a.976.976,0,0,1-1.953,0v-3.945a3.24,3.24,0,0,0-3.235-3.237h-3.756l1.131,1.11a.977.977,0,0,1-1.367,1.4l-1.556-1.527-.01-.011a2.707,2.707,0,0,1-.006-3.786l1.5-1.571A.976.976,0,1,1,263.16,249l-1.035,1.084h3.688A5.2,5.2,0,0,1,271,255.277Zm-1.465,7.806a.977.977,0,0,1-.976.978h-.538a9.889,9.889,0,0,1-2.056,4.415,4.74,4.74,0,0,0,2.3.569.977.977,0,0,1,0,1.955,6.642,6.642,0,0,1-3.806-1.15,6.658,6.658,0,0,1-3.811,1.15.977.977,0,0,1,0-1.955,4.759,4.759,0,0,0,2.3-.564,8.969,8.969,0,0,1-.839-1.182.977.977,0,0,1,1.676-1,6.9,6.9,0,0,0,.667.937,6.9,6.9,0,0,0,.419-.554,7.99,7.99,0,0,0,1.158-2.617h-5.68a.978.978,0,0,1,0-1.955h3.174v-.978a.977.977,0,0,1,1.954,0v.978h3.076A.977.977,0,0,1,269.535,263.083Z" transform="translate(-246 -246)" fill="#fbd277"/>
</svg>
