<svg xmlns="http://www.w3.org/2000/svg" width="25" height="25" viewBox="0 0 25 25">
  <path id="Path_302432" data-name="Path 302432" d="M271,257.793a4.329,4.329,0,0,0-3.8-4.291,4.493,4.493,0,0,0-8.669,1.072,4.647,4.647,0,0,0-3.789,4.561,4.6,4.6,0,0,0,1.2,3.107,4.609,4.609,0,0,0,.015,3.63h-3.463a3.509,3.509,0,0,1-2.93-5.441.976.976,0,0,0-.22-1.313,3.539,3.539,0,0,1,2.156-6.347h.116a.974.974,0,0,0,1-1.084,3.6,3.6,0,0,1-.021-.378,3.36,3.36,0,0,1,6.115-1.921.977.977,0,0,0,1.6-1.119,5.313,5.313,0,0,0-9.653,2.609,5.494,5.494,0,0,0-3.139,9.217,5.463,5.463,0,0,0,4.972,7.727h2.666v2.2a.976.976,0,1,0,1.952,0v-2.547a4.594,4.594,0,0,0,3.079,1.18h1.977v1.367a.976.976,0,0,0,1.953,0v-4.4a3.543,3.543,0,0,0,3.052-3.41.977.977,0,0,0-1.954,0,1.54,1.54,0,0,1-1.1,1.395v-5.252a.976.976,0,1,0-1.953,0v3.114a2.3,2.3,0,0,1-.88-.448,1.066,1.066,0,0,1-.439-.811.977.977,0,0,0-1.954,0,3.011,3.011,0,0,0,1.131,2.3,4.209,4.209,0,0,0,2.141.94V266.7h-1.977a2.661,2.661,0,0,1-2.221-4.126.976.976,0,0,0-.22-1.312,2.686,2.686,0,0,1,1.635-4.816l.061,0h.027a.976.976,0,0,0,1-1.084,2.538,2.538,0,0,1,5.02-.739.976.976,0,0,0,1.026.8c.065,0,.116-.006.163-.006a2.368,2.368,0,0,1,1.664,4.052.976.976,0,0,0-.08,1.3,3.617,3.617,0,0,1,.784,2.265,3.874,3.874,0,0,1-1.928,3.377.976.976,0,1,0,.918,1.724,5.523,5.523,0,0,0,2.109-2.04,5.936,5.936,0,0,0,.855-3.061,5.548,5.548,0,0,0-.753-2.811A4.279,4.279,0,0,0,271,257.793Z" transform="translate(-246 -246)" fill="#eb86be"/>
</svg>
