<svg xmlns="http://www.w3.org/2000/svg" width="25" height="25.001" viewBox="0 0 25 25.001">
  <path id="Path_302425" data-name="Path 302425" d="M255.12,264.023a5.054,5.054,0,0,0,1.818-3.569,5.729,5.729,0,0,0-.055-.767.976.976,0,0,0-.967-.845h-7.664a13.078,13.078,0,0,1,.82-1.954h1.616a.976.976,0,1,0,0-1.953h-2.194a.975.975,0,0,0-.839.478A12.062,12.062,0,0,0,246,260.454a5.054,5.054,0,0,0,1.818,3.569,6.284,6.284,0,0,0,2.675,1.486v3a12.517,12.517,0,0,0-2.628.6.976.976,0,1,0,.665,1.836,9.956,9.956,0,0,1,2.909-.534,9.677,9.677,0,0,1,2.865.531.976.976,0,1,0,.677-1.831,12.043,12.043,0,0,0-2.536-.591v-3.008a6.284,6.284,0,0,0,2.675-1.486Zm-7.13-3.229h6.958a3.539,3.539,0,0,1-6.958,0Zm17.639,9.229a.977.977,0,0,1-.976.978h-5.371a.977.977,0,0,1-.976-.978V264.01a.976.976,0,0,1,1.953,0v5.036h4.395A.977.977,0,0,1,265.629,270.023Zm4.216-11.536-2.049-4.681a2.538,2.538,0,0,1-.214-1.026V247.92a.976.976,0,0,0-.245-1.921h-5.371a.976.976,0,0,0-.244,1.921v4.859a2.54,2.54,0,0,1-.215,1.026l-1.924,4.4-11.916-11.917a.977.977,0,0,0-1.381,1.381l23.046,23.048a.977.977,0,0,0,1.668-.691V264.01a13.708,13.708,0,0,0-1.155-5.524Zm-6.547-3.9a4.493,4.493,0,0,0,.379-1.81v-4.826h1.953v4.826a4.493,4.493,0,0,0,.379,1.81l1.86,4.253h-6.431Zm5.75,13.076-6.871-6.871H268.6a11.733,11.733,0,0,1,.446,3.216Z" transform="translate(-246 -245.999)" fill="#46ceac"/>
</svg>
