<svg xmlns="http://www.w3.org/2000/svg" width="25" height="25" viewBox="0 0 25 25">
  <path id="Path_307770" data-name="Path 307770" d="M23.867,12.6V9.091a2.268,2.268,0,0,0-2.092-2.254l-3.263-5.7A2.249,2.249,0,0,0,15.427.306L4.24,6.819H2.276A2.275,2.275,0,0,0,0,9.091V22.727A2.275,2.275,0,0,0,2.276,25H21.594a2.275,2.275,0,0,0,2.273-2.273V19.214A1.7,1.7,0,0,0,25,17.614V14.2A1.7,1.7,0,0,0,23.867,12.6ZM20.454,6.819H15.5l3.714-2.162Zm-1.8-3.149L14.025,6.364l-.782.455H11l7.09-4.128ZM16,1.288a1.1,1.1,0,0,1,.844-.114,1.114,1.114,0,0,1,.683.528v0L14.482,3.477,8.742,6.819H6.5ZM22.73,22.727a1.138,1.138,0,0,1-1.136,1.136H2.276a1.138,1.138,0,0,1-1.136-1.136V9.091A1.138,1.138,0,0,1,2.276,7.955H21.594A1.138,1.138,0,0,1,22.73,9.091V12.5H19.321a3.409,3.409,0,1,0,0,6.818H22.73Zm1.136-5.114a.569.569,0,0,1-.568.568H19.321a2.273,2.273,0,1,1,0-4.545H23.3a.569.569,0,0,1,.568.568Z" transform="translate(-0.003)" fill="#5e9cea"/>
</svg>
